{
  "accessors": [
    {
      "bufferView": 2,
      "componentType": 5126,
      "count": 2856,
      "max": [
        14.06194019317627,
        69.79348754882813,
        1.573800005871817e-07
      ],
      "min": [
        -37.49531173706055,
        -62.229488372802734,
        -62.90230178833008
      ],
      "type": "VEC3"
    },
    {
      "bufferView": 2,
      "byteOffset": 34272,
      "componentType": 5126,
      "count": 2856,
      "max": [
        1.0,
        1.0,
        0.9999942779541016
      ],
      "min": [
        -1.0,
        -1.0,
        -0.9999942779541016
      ],
      "type": "VEC3"
    },
    {
      "bufferView": 3,
      "componentType": 5126,
      "count": 2856,
      "max": [
        1.0,
        1.0,
        1.0,
        1.0
      ],
      "min": [
        -1.0,
        -1.0,
        -1.0,
        1.0
      ],
      "type": "VEC4"
    },
    {
      "bufferView": 1,
      "componentType": 5126,
      "count": 2856,
      "max": [
        0.9974266886711121,
        0.9932525157928467
      ],
      "min": [
        0.0020353191066533327,
        0.0020353191066533327
      ],
      "type": "VEC2"
    },
    {
      "bufferView": 0,
      "componentType": 5125,
      "count": 8592,
      "type": "SCALAR"
    },
    {
      "bufferView": 2,
      "byteOffset": 68544,
      "componentType": 5126,
      "count": 272,
      "max": [
        1.3871209621429443,
        30.722230911254883,
        38.54262161254883
      ],
      "min": [
        -7.573531150817871,
        -0.8885421752929688,
        -21.910289764404297
      ],
      "type": "VEC3"
    },
    {
      "bufferView": 2,
      "byteOffset": 71808,
      "componentType": 5126,
      "count": 272,
      "max": [
        0.9974542856216431,
        0.9926149845123291,
        0.9587879776954651
      ],
      "min": [
        -0.9974641799926758,
        -0.7510166764259338,
        -0.9593570232391357
      ],
      "type": "VEC3"
    },
    {
      "bufferView": 3,
      "byteOffset": 45696,
      "componentType": 5126,
      "count": 272,
      "max": [
        0.9996182322502136,
        0.9987691640853882,
        0.9562269449234009,
        1.0
      ],
      "min": [
        -0.9639918804168701,
        -0.12757445871829987,
        -0.9561139941215515,
        1.0
      ],
      "type": "VEC4"
    },
    {
      "bufferView": 1,
      "byteOffset": 22848,
      "componentType": 5126,
      "count": 272,
      "max": [
        0.989434003829956,
        0.9787151217460632
      ],
      "min": [
        0.0020353191066533327,
        0.21320490539073944
      ],
      "type": "VEC2"
    },
    {
      "bufferView": 0,
      "byteOffset": 34368,
      "componentType": 5125,
      "count": 996,
      "type": "SCALAR"
    },
    {
      "bufferView": 2,
      "byteOffset": 75072,
      "componentType": 5126,
      "count": 222,
      "max": [
        17.83871078491211,
        45.205970764160156,
        0.9346354007720947
      ],
      "min": [
        -26.579269409179688,
        0.0,
        -7.9038310050964355
      ],
      "type": "VEC3"
    },
    {
      "bufferView": 2,
      "byteOffset": 77736,
      "componentType": 5126,
      "count": 222,
      "max": [
        0.9674876928329468,
        1.0,
        1.0
      ],
      "min": [
        -0.9673255085945129,
        -1.0,
        -0.9996542930603027
      ],
      "type": "VEC3"
    },
    {
      "bufferView": 3,
      "byteOffset": 50048,
      "componentType": 5126,
      "count": 222,
      "max": [
        0.9998529553413391,
        0.9981067776679993,
        0.9721400737762451,
        1.0
      ],
      "min": [
        -0.9999998211860657,
        -1.0,
        -0.9996458888053894,
        1.0
      ],
      "type": "VEC4"
    },
    {
      "bufferView": 1,
      "byteOffset": 25024,
      "componentType": 5126,
      "count": 222,
      "max": [
        0.9971007704734802,
        0.9976552724838257
      ],
      "min": [
        0.0020353191066533327,
        0.0020353191066533327
      ],
      "type": "VEC2"
    },
    {
      "bufferView": 0,
      "byteOffset": 38352,
      "componentType": 5125,
      "count": 510,
      "type": "SCALAR"
    },
    {
      "bufferView": 2,
      "byteOffset": 80400,
      "componentType": 5126,
      "count": 144,
      "max": [
        9.536739753457368e-07,
        1.7971420288085938,
        10.03320026397705
      ],
      "min": [
        -23.641820907592773,
        -10.329919815063477,
        -34.29664993286133
      ],
      "type": "VEC3"
    },
    {
      "bufferView": 2,
      "byteOffset": 82128,
      "componentType": 5126,
      "count": 144,
      "max": [
        0.9991447925567627,
        0.9999992251396179,
        0.9996368885040283
      ],
      "min": [
        -0.9991449117660522,
        -0.9999876022338867,
        -0.9996368885040283
      ],
      "type": "VEC3"
    },
    {
      "bufferView": 3,
      "byteOffset": 53600,
      "componentType": 5126,
      "count": 144,
      "max": [
        0.9999876022338867,
        0.9995079040527344,
        0.10129017382860184,
        1.0
      ],
      "min": [
        -0.9999991655349731,
        -0.9995077848434448,
        -0.10128885507583618,
        1.0
      ],
      "type": "VEC4"
    },
    {
      "bufferView": 1,
      "byteOffset": 26800,
      "componentType": 5126,
      "count": 144,
      "max": [
        0.8925271034240723,
        0.991402804851532
      ],
      "min": [
        0.13078269362449646,
        0.0020353191066533327
      ],
      "type": "VEC2"
    },
    {
      "bufferView": 0,
      "byteOffset": 40392,
      "componentType": 5125,
      "count": 324,
      "type": "SCALAR"
    },
    {
      "bufferView": 2,
      "byteOffset": 83856,
      "componentType": 5126,
      "count": 222,
      "max": [
        17.83871078491211,
        45.205970764160156,
        7.903834819793701
      ],
      "min": [
        -26.579269409179688,
        0.0,
        -0.9346352219581604
      ],
      "type": "VEC3"
    },
    {
      "bufferView": 2,
      "byteOffset": 86520,
      "componentType": 5126,
      "count": 222,
      "max": [
        0.9674876928329468,
        1.0,
        0.9996542930603027
      ],
      "min": [
        -0.9673255085945129,
        -1.0,
        -1.0
      ],
      "type": "VEC3"
    },
    {
      "bufferView": 3,
      "byteOffset": 55904,
      "componentType": 5126,
      "count": 222,
      "max": [
        0.9998528957366943,
        0.9981071352958679,
        0.9996458888053894,
        1.0
      ],
      "min": [
        -0.9999998211860657,
        -0.9999997615814209,
        -0.9721402525901794,
        1.0
      ],
      "type": "VEC4"
    },
    {
      "bufferView": 1,
      "byteOffset": 27952,
      "componentType": 5126,
      "count": 222,
      "max": [
        0.9979646801948547,
        0.9976515769958496
      ],
      "min": [
        0.0020353191066533327,
        0.0020353191066533327
      ],
      "type": "VEC2"
    },
    {
      "bufferView": 0,
      "byteOffset": 41688,
      "componentType": 5125,
      "count": 510,
      "type": "SCALAR"
    },
    {
      "bufferView": 2,
      "byteOffset": 89184,
      "componentType": 5126,
      "count": 1128,
      "max": [
        8.98045539855957,
        11.558500289916992,
        29.428159713745117
      ],
      "min": [
        -11.940469741821289,
        -12.420180320739746,
        -28.93242073059082
      ],
      "type": "VEC3"
    },
    {
      "bufferView": 2,
      "byteOffset": 102720,
      "componentType": 5126,
      "count": 1128,
      "max": [
        1.0,
        1.0,
        1.0
      ],
      "min": [
        -1.0,
        -1.0,
        -1.0
      ],
      "type": "VEC3"
    },
    {
      "bufferView": 3,
      "byteOffset": 59456,
      "componentType": 5126,
      "count": 1128,
      "max": [
        0.9999968409538269,
        1.0,
        1.0,
        1.0
      ],
      "min": [
        -1.0,
        -1.0,
        -1.0,
        1.0
      ],
      "type": "VEC4"
    },
    {
      "bufferView": 1,
      "byteOffset": 29728,
      "componentType": 5126,
      "count": 1128,
      "max": [
        0.9893475770950317,
        0.996828019618988
      ],
      "min": [
        0.0018876190297305584,
        0.24927890300750732
      ],
      "type": "VEC2"
    },
    {
      "bufferView": 0,
      "byteOffset": 43728,
      "componentType": 5125,
      "count": 3420,
      "type": "SCALAR"
    },
    {
      "bufferView": 2,
      "byteOffset": 116256,
      "componentType": 5126,
      "count": 730,
      "max": [
        7.098694801330566,
        7.208777904510498,
        28.960880279541016
      ],
      "min": [
        -7.260024070739746,
        -7.042075157165527,
        -26.08941078186035
      ],
      "type": "VEC3"
    },
    {
      "bufferView": 2,
      "byteOffset": 125016,
      "componentType": 5126,
      "count": 730,
      "max": [
        1.0,
        1.0,
        1.0
      ],
      "min": [
        -1.0,
        -1.0,
        -1.0
      ],
      "type": "VEC3"
    },
    {
      "bufferView": 3,
      "byteOffset": 77504,
      "componentType": 5126,
      "count": 730,
      "max": [
        0.7274683713912964,
        0.9595354795455933,
        1.0,
        1.0
      ],
      "min": [
        -1.0,
        -1.0,
        -1.0,
        1.0
      ],
      "type": "VEC4"
    },
    {
      "bufferView": 1,
      "byteOffset": 38752,
      "componentType": 5126,
      "count": 730,
      "max": [
        0.9853758215904236,
        0.9894145131111145
      ],
      "min": [
        0.09239763021469116,
        0.0018876190297305584
      ],
      "type": "VEC2"
    },
    {
      "bufferView": 0,
      "byteOffset": 57408,
      "componentType": 5125,
      "count": 2184,
      "type": "SCALAR"
    },
    {
      "bufferView": 2,
      "byteOffset": 133776,
      "componentType": 5126,
      "count": 1584,
      "max": [
        30.457700729370117,
        65.81781005859375,
        31.466459274291992
      ],
      "min": [
        -30.457700729370117,
        -58.49871826171875,
        -1.6374579668045044
      ],
      "type": "VEC3"
    },
    {
      "bufferView": 2,
      "byteOffset": 152784,
      "componentType": 5126,
      "count": 1584,
      "max": [
        1.0,
        1.0,
        1.0
      ],
      "min": [
        -1.0,
        -1.0,
        -1.0
      ],
      "type": "VEC3"
    },
    {
      "bufferView": 3,
      "byteOffset": 89184,
      "componentType": 5126,
      "count": 1584,
      "max": [
        1.0,
        1.0,
        1.0,
        1.0
      ],
      "min": [
        -1.0,
        -1.0,
        -1.0,
        1.0
      ],
      "type": "VEC4"
    },
    {
      "bufferView": 1,
      "byteOffset": 44592,
      "componentType": 5126,
      "count": 1584,
      "max": [
        0.9957823157310486,
        0.9981123805046082
      ],
      "min": [
        0.0018876190297305584,
        0.0018876190297305584
      ],
      "type": "VEC2"
    },
    {
      "bufferView": 0,
      "byteOffset": 66144,
      "componentType": 5125,
      "count": 3816,
      "type": "SCALAR"
    }
  ],
  "asset": {
    "extras": {
      "author": "AsG_Alligator (https://sketchfab.com/AsG_Alligator)",
      "license": "CC-BY-NC-4.0 (http://creativecommons.org/licenses/by-nc/4.0/)",
      "source": "https://sketchfab.com/3d-models/wrecked-fiat-126p-004323a8c7bf490ebc95b5debacbd22d",
      "title": "Wrecked Fiat 126p"
    },
    "generator": "Sketchfab-12.64.0",
    "version": "2.0"
  },
  "bufferViews": [
    {
      "buffer": 0,
      "byteLength": 81408,
      "name": "floatBufferViews",
      "target": 34963
    },
    {
      "buffer": 0,
      "byteLength": 57264,
      "byteOffset": 81408,
      "byteStride": 8,
      "name": "floatBufferViews",
      "target": 34962
    },
    {
      "buffer": 0,
      "byteLength": 171792,
      "byteOffset": 138672,
      "byteStride": 12,
      "name": "floatBufferViews",
      "target": 34962
    },
    {
      "buffer": 0,
      "byteLength": 114528,
      "byteOffset": 310464,
      "byteStride": 16,
      "name": "floatBufferViews",
      "target": 34962
    }
  ],
  "buffers": [
    {
      "byteLength": 424992,
      "uri": "scene.bin"
    }
  ],
  "extensionsRequired": [
    "KHR_materials_pbrSpecularGlossiness"
  ],
  "extensionsUsed": [
    "KHR_materials_pbrSpecularGlossiness"
  ],
  "images": [
    {
      "uri": "textures/car126p_chassis_diffuse.png"
    },
    {
      "uri": "textures/car126p_chassis_specularGlossiness.png"
    },
    {
      "uri": "textures/car126p_chassis_normal.png"
    },
    {
      "uri": "textures/car126p_body_diffuse.png"
    },
    {
      "uri": "textures/car126p_body_specularGlossiness.png"
    },
    {
      "uri": "textures/car126p_body_normal.png"
    }
  ],
  "materials": [
    {
      "doubleSided": true,
      "extensions": {
        "KHR_materials_pbrSpecularGlossiness": {
          "diffuseFactor": [
            1.0,
            1.0,
            1.0,
            1.0
          ],
          "diffuseTexture": {
            "index": 0
          },
          "glossinessFactor": 1.0,
          "specularFactor": [
            1.0,
            1.0,
            1.0
          ],
          "specularGlossinessTexture": {
            "index": 1
          }
        }
      },
      "name": "car126p_chassis",
      "normalTexture": {
        "index": 2
      }
    },
    {
      "doubleSided": true,
      "extensions": {
        "KHR_materials_pbrSpecularGlossiness": {
          "diffuseFactor": [
            1.0,
            1.0,
            1.0,
            1.0
          ],
          "diffuseTexture": {
            "index": 3
          },
          "glossinessFactor": 1.0,
          "specularFactor": [
            1.0,
            1.0,
            1.0
          ],
          "specularGlossinessTexture": {
            "index": 4
          }
        }
      },
      "name": "car126p_body",
      "normalTexture": {
        "index": 5
      }
    }
  ],
  "meshes": [
    {
      "name": "car126p_body-material",
      "primitives": [
        {
          "attributes": {
            "NORMAL": 1,
            "POSITION": 0,
            "TANGENT": 2,
            "TEXCOORD_0": 3
          },
          "indices": 4,
          "material": 1,
          "mode": 4
        }
      ]
    },
    {
      "name": "car126p_body-material",
      "primitives": [
        {
          "attributes": {
            "NORMAL": 6,
            "POSITION": 5,
            "TANGENT": 7,
            "TEXCOORD_0": 8
          },
          "indices": 9,
          "material": 1,
          "mode": 4
        }
      ]
    },
    {
      "name": "car126p_body-material",
      "primitives": [
        {
          "attributes": {
            "NORMAL": 11,
            "POSITION": 10,
            "TANGENT": 12,
            "TEXCOORD_0": 13
          },
          "indices": 14,
          "material": 1,
          "mode": 4
        }
      ]
    },
    {
      "name": "car126p_body-material",
      "primitives": [
        {
          "attributes": {
            "NORMAL": 16,
            "POSITION": 15,
            "TANGENT": 17,
            "TEXCOORD_0": 18
          },
          "indices": 19,
          "material": 1,
          "mode": 4
        }
      ]
    },
    {
      "name": "car126p_body-material",
      "primitives": [
        {
          "attributes": {
            "NORMAL": 21,
            "POSITION": 20,
            "TANGENT": 22,
            "TEXCOORD_0": 23
          },
          "indices": 24,
          "material": 1,
          "mode": 4
        }
      ]
    },
    {
      "name": "car126p_chassis-material",
      "primitives": [
        {
          "attributes": {
            "NORMAL": 26,
            "POSITION": 25,
            "TANGENT": 27,
            "TEXCOORD_0": 28
          },
          "indices": 29,
          "material": 0,
          "mode": 4
        }
      ]
    },
    {
      "name": "car126p_chassis-material",
      "primitives": [
        {
          "attributes": {
            "NORMAL": 31,
            "POSITION": 30,
            "TANGENT": 32,
            "TEXCOORD_0": 33
          },
          "indices": 34,
          "material": 0,
          "mode": 4
        }
      ]
    },
    {
      "name": "car126p_chassis-material",
      "primitives": [
        {
          "attributes": {
            "NORMAL": 36,
            "POSITION": 35,
            "TANGENT": 37,
            "TEXCOORD_0": 38
          },
          "indices": 39,
          "material": 0,
          "mode": 4
        }
      ]
    }
  ],
  "nodes": [
    {
      "children": [
        1
      ],
      "matrix": [
        1.0,
        0.0,
        0.0,
        0.0,
        0.0,
        2.220446049250313e-16,
        -1.0,
        0.0,
        0.0,
        1.0,
        2.220446049250313e-16,
        0.0,
        0.0,
        0.0,
        0.0,
        1.0
      ],
      "name": "Sketchfab_model"
    },
    {
      "children": [
        2,
        4,
        6,
        8,
        10,
        12,
        14,
        16
      ],
      "name": "Collada visual scene group"
    },
    {
      "children": [
        3
      ],
      "matrix": [
        7.54979e-08,
        0.0,
        -1.0,
        0.0,
        0.0,
        1.0,
        0.0,
        0.0,
        1.0,
        0.0,
        7.54979e-08,
        0.0,
        31.45115,
        0.0,
        0.0,
        1.0
      ],
      "name": "body"
    },
    {
      "mesh": 0,
      "name": "car126p_body-material"
    },
    {
      "children": [
        5
      ],
      "matrix": [
        7.49675e-08,
        0.008903342,
        -0.9999604,
        0.0,
        -1.19543e-07,
        0.9999604,
        0.008903342,
        0.0,
        1.0,
        1.18871e-07,
        7.60288e-08,
        0.0,
        -8.316166,
        -59.84746,
        8.606365,
        1.0
      ],
      "name": "trunk"
    },
    {
      "mesh": 1,
      "name": "car126p_body-material"
    },
    {
      "children": [
        7
      ],
      "matrix": [
        7.54979e-08,
        0.0,
        -1.0,
        0.0,
        0.1357645,
        0.9907411,
        1.02499e-08,
        0.0,
        0.9907411,
        -0.1357645,
        7.47989e-08,
        0.0,
        30.51651,
        -26.0858,
        7.433923,
        1.0
      ],
      "name": "doors"
    },
    {
      "mesh": 2,
      "name": "car126p_body-material"
    },
    {
      "children": [
        9
      ],
      "matrix": [
        7.73768e-08,
        -0.007007021,
        -0.9999754,
        0.0,
        2.71094e-10,
        0.9999754,
        -0.007007021,
        0.0,
        1.0,
        2.71094e-10,
        7.73768e-08,
        0.0,
        12.13173,
        66.78931,
        -4.136609,
        1.0
      ],
      "name": "hood"
    },
    {
      "mesh": 3,
      "name": "car126p_body-material"
    },
    {
      "children": [
        11
      ],
      "matrix": [
        7.54979e-08,
        0.0,
        -1.0,
        0.0,
        -0.02844877,
        0.9995952,
        -2.14782e-09,
        0.0,
        0.9995952,
        0.02844877,
        7.54673e-08,
        0.0,
        -30.51651,
        -26.0858,
        7.433923,
        1.0
      ],
      "name": "doors.001"
    },
    {
      "mesh": 4,
      "name": "car126p_body-material"
    },
    {
      "children": [
        13
      ],
      "matrix": [
        7.54979e-08,
        0.0,
        -1.0,
        0.0,
        0.0,
        1.0,
        0.0,
        0.0,
        1.0,
        0.0,
        7.54979e-08,
        0.0,
        -0.3443451,
        -40.62474,
        -11.89786,
        1.0
      ],
      "name": "axle_front"
    },
    {
      "mesh": 5,
      "name": "car126p_chassis-material"
    },
    {
      "children": [
        15
      ],
      "matrix": [
        7.54979e-08,
        0.0,
        -1.0,
        0.0,
        3.25841e-07,
        -1.0,
        2.46003e-14,
        0.0,
        -1.0,
        -3.25841e-07,
        -7.54979e-08,
        0.0,
        -0.3443451,
        39.53,
        -11.89786,
        1.0
      ],
      "name": "axle_rear"
    },
    {
      "mesh": 6,
      "name": "car126p_chassis-material"
    },
    {
      "children": [
        17
      ],
      "matrix": [
        1.0,
        0.0,
        0.0,
        0.0,
        0.0,
        1.0,
        0.0,
        0.0,
        0.0,
        0.0,
        1.0,
        0.0,
        0.0,
        0.0,
        -11.21179,
        1.0
      ],
      "name": "floor"
    },
    {
      "mesh": 7,
      "name": "car126p_chassis-material"
    }
  ],
  "samplers": [
    {
      "magFilter": 9729,
      "minFilter": 9987,
      "wrapS": 10497,
      "wrapT": 10497
    }
  ],
  "scene": 0,
  "scenes": [
    {
      "name": "Sketchfab_Scene",
      "nodes": [
        0
      ]
    }
  ],
  "textures": [
    {
      "sampler": 0,
      "source": 0
    },
    {
      "sampler": 0,
      "source": 1
    },
    {
      "sampler": 0,
      "source": 2
    },
    {
      "sampler": 0,
      "source": 3
    },
    {
      "sampler": 0,
      "source": 4
    },
    {
      "sampler": 0,
      "source": 5
    }
  ]
}
