{
  "accessors": [
    {
      "bufferView": 2,
      "componentType": 5126,
      "count": 786,
      "max": [
        0.7209625840187073,
        1.5282890796661377,
        1.2458291053771973
      ],
      "min": [
        -0.7208548188209534,
        -0.2516188621520996,
        0.4375952482223511
      ],
      "type": "VEC3"
    },
    {
      "bufferView": 2,
      "byteOffset": 9432,
      "componentType": 5126,
      "count": 786,
      "max": [
        0.999970555305481,
        0.9996708631515503,
        1.0
      ],
      "min": [
        -0.999970555305481,
        -0.9999759197235107,
        -1.0
      ],
      "type": "VEC3"
    },
    {
      "bufferView": 3,
      "componentType": 5126,
      "count": 786,
      "max": [
        0.9999974370002747,
        1.0,
        0.9981623291969299,
        1.0
      ],
      "min": [
        -0.9999974370002747,
        -1.0,
        -0.9996112585067749,
        -1.0
      ],
      "type": "VEC4"
    },
    {
      "bufferView": 1,
      "componentType": 5126,
      "count": 786,
      "max": [
        0.9813560843467712,
        0.9980515837669373
      ],
      "min": [
        0.0019524171948432922,
        0.0019444184144958854
      ],
      "type": "VEC2"
    },
    {
      "bufferView": 0,
      "componentType": 5125,
      "count": 3480,
      "type": "SCALAR"
    },
    {
      "bufferView": 2,
      "byteOffset": 18864,
      "componentType": 5126,
      "count": 9757,
      "max": [
        0.82808917760849,
        2.21551513671875,
        0.6228005886077881
      ],
      "min": [
        -0.8280889391899109,
        -1.5164287090301514,
        -2.384185791015625e-07
      ],
      "type": "VEC3"
    },
    {
      "bufferView": 2,
      "byteOffset": 135948,
      "componentType": 5126,
      "count": 9757,
      "max": [
        1.0,
        1.0,
        1.0
      ],
      "min": [
        -1.0,
        -1.0,
        -1.0
      ],
      "type": "VEC3"
    },
    {
      "bufferView": 3,
      "byteOffset": 12576,
      "componentType": 5126,
      "count": 9757,
      "max": [
        1.0,
        1.0,
        1.0,
        1.0
      ],
      "min": [
        -1.0,
        -1.0,
        -1.0,
        -1.0
      ],
      "type": "VEC4"
    },
    {
      "bufferView": 1,
      "byteOffset": 6288,
      "componentType": 5126,
      "count": 9757,
      "max": [
        0.9980395436286926,
        0.9979767799377441
      ],
      "min": [
        0.0019618473015725613,
        0.0019590728916227818
      ],
      "type": "VEC2"
    },
    {
      "bufferView": 0,
      "byteOffset": 13920,
      "componentType": 5125,
      "count": 32166,
      "type": "SCALAR"
    },
    {
      "bufferView": 2,
      "byteOffset": 253032,
      "componentType": 5126,
      "count": 134,
      "max": [
        0.747809112071991,
        1.5472509860992432,
        1.4040535688400269
      ],
      "min": [
        -0.7477013468742371,
        -0.7569101452827454,
        0.963415265083313
      ],
      "type": "VEC3"
    },
    {
      "bufferView": 2,
      "byteOffset": 254640,
      "componentType": 5126,
      "count": 134,
      "max": [
        0.9793515205383301,
        0.810140073299408,
        0.7998403310775757
      ],
      "min": [
        -0.9793514609336853,
        -0.7688508033752441,
        0.1931813359260559
      ],
      "type": "VEC3"
    },
    {
      "bufferView": 3,
      "byteOffset": 168688,
      "componentType": 5126,
      "count": 134,
      "max": [
        0.9999904036521912,
        0.2207714021205902,
        0.1877470463514328,
        1.0
      ],
      "min": [
        -1.0,
        -0.9999961256980896,
        -0.18774591386318207,
        -1.0
      ],
      "type": "VEC4"
    },
    {
      "bufferView": 1,
      "byteOffset": 84344,
      "componentType": 5126,
      "count": 134,
      "max": [
        0.9968662858009338,
        0.996976375579834
      ],
      "min": [
        0.003062160685658455,
        0.003019843716174364
      ],
      "type": "VEC2"
    },
    {
      "bufferView": 0,
      "byteOffset": 142584,
      "componentType": 5125,
      "count": 504,
      "type": "SCALAR"
    },
    {
      "bufferView": 2,
      "byteOffset": 256248,
      "componentType": 5126,
      "count": 4977,
      "max": [
        0.8898857235908508,
        2.2788383960723877,
        1.1030218601226807
      ],
      "min": [
        -0.8898853659629822,
        -1.8319671154022217,
        0.15232384204864502
      ],
      "type": "VEC3"
    },
    {
      "bufferView": 2,
      "byteOffset": 315972,
      "componentType": 5126,
      "count": 4977,
      "max": [
        1.0,
        1.0,
        1.0
      ],
      "min": [
        -1.0,
        -1.0,
        -1.0
      ],
      "type": "VEC3"
    },
    {
      "bufferView": 3,
      "byteOffset": 170832,
      "componentType": 5126,
      "count": 4977,
      "max": [
        1.0,
        1.0,
        1.0,
        1.0
      ],
      "min": [
        -1.0,
        -1.0,
        -1.0,
        -1.0
      ],
      "type": "VEC4"
    },
    {
      "bufferView": 1,
      "byteOffset": 85416,
      "componentType": 5126,
      "count": 4977,
      "max": [
        0.9969796538352966,
        0.9970141053199768
      ],
      "min": [
        0.0026340200565755367,
        0.0026329397223889828
      ],
      "type": "VEC2"
    },
    {
      "bufferView": 0,
      "byteOffset": 144600,
      "componentType": 5125,
      "count": 10854,
      "type": "SCALAR"
    },
    {
      "bufferView": 2,
      "byteOffset": 375696,
      "componentType": 5126,
      "count": 208,
      "max": [
        0.7320643663406372,
        2.274780511856079,
        0.7998291254043579
      ],
      "min": [
        -0.7320640087127686,
        -1.7747933864593506,
        0.592106819152832
      ],
      "type": "VEC3"
    },
    {
      "bufferView": 2,
      "byteOffset": 378192,
      "componentType": 5126,
      "count": 208,
      "max": [
        0.9491332769393921,
        0.9932618737220764,
        0.932321310043335
      ],
      "min": [
        -0.9491349458694458,
        -0.9738731384277344,
        -0.9748744964599609
      ],
      "type": "VEC3"
    },
    {
      "bufferView": 3,
      "byteOffset": 250464,
      "componentType": 5126,
      "count": 208,
      "max": [
        0.9999649524688721,
        0.8823549151420593,
        0.4379850924015045,
        1.0
      ],
      "min": [
        -0.9999649524688721,
        -0.9513243436813354,
        -0.42371582984924316,
        -1.0
      ],
      "type": "VEC4"
    },
    {
      "bufferView": 1,
      "byteOffset": 125232,
      "componentType": 5126,
      "count": 208,
      "max": [
        0.8258706331253052,
        0.5254038572311401
      ],
      "min": [
        0.08125638216733932,
        0.3238753080368042
      ],
      "type": "VEC2"
    },
    {
      "bufferView": 0,
      "byteOffset": 188016,
      "componentType": 5125,
      "count": 360,
      "type": "SCALAR"
    },
    {
      "bufferView": 2,
      "byteOffset": 380688,
      "componentType": 5126,
      "count": 3536,
      "max": [
        0.8484092950820923,
        2.331904649734497,
        1.4800647497177124
      ],
      "min": [
        -0.8484089374542236,
        -1.8267529010772705,
        0.3044689893722534
      ],
      "type": "VEC3"
    },
    {
      "bufferView": 2,
      "byteOffset": 423120,
      "componentType": 5126,
      "count": 3536,
      "max": [
        1.0,
        1.0,
        1.0
      ],
      "min": [
        -1.0,
        -1.0,
        -1.0
      ],
      "type": "VEC3"
    },
    {
      "bufferView": 3,
      "byteOffset": 253792,
      "componentType": 5126,
      "count": 3536,
      "max": [
        1.0,
        1.0,
        1.0,
        1.0
      ],
      "min": [
        -1.0,
        -1.0,
        -1.0,
        -1.0
      ],
      "type": "VEC4"
    },
    {
      "bufferView": 1,
      "byteOffset": 126896,
      "componentType": 5126,
      "count": 3536,
      "max": [
        0.9972506761550903,
        0.9889122247695923
      ],
      "min": [
        0.0024689319543540478,
        0.002468542428687215
      ],
      "type": "VEC2"
    },
    {
      "bufferView": 0,
      "byteOffset": 189456,
      "componentType": 5125,
      "count": 12351,
      "type": "SCALAR"
    }
  ],
  "asset": {
    "extras": {
      "author": "Arkady Gribachev (https://sketchfab.com/prephonat)",
      "license": "CC-BY-4.0 (http://creativecommons.org/licenses/by/4.0/)",
      "source": "https://sketchfab.com/3d-models/old-car-vaz-2107-91270dab9d1a47c7ba7ffaaf8c8b0beb",
      "title": "Old Car - VAZ 2107"
    },
    "generator": "Sketchfab-12.66.0",
    "version": "2.0"
  },
  "bufferViews": [
    {
      "buffer": 0,
      "byteLength": 238860,
      "name": "floatBufferViews",
      "target": 34963
    },
    {
      "buffer": 0,
      "byteLength": 155184,
      "byteOffset": 238860,
      "byteStride": 8,
      "name": "floatBufferViews",
      "target": 34962
    },
    {
      "buffer": 0,
      "byteLength": 465552,
      "byteOffset": 394044,
      "byteStride": 12,
      "name": "floatBufferViews",
      "target": 34962
    },
    {
      "buffer": 0,
      "byteLength": 310368,
      "byteOffset": 859596,
      "byteStride": 16,
      "name": "floatBufferViews",
      "target": 34962
    }
  ],
  "buffers": [
    {
      "byteLength": 1169964,
      "uri": "scene.bin"
    }
  ],
  "images": [
    {
      "uri": "textures/Interior_baseColor.png"
    },
    {
      "uri": "textures/Interior_normal.png"
    },
    {
      "uri": "textures/Bottom_baseColor.png"
    },
    {
      "uri": "textures/Bottom_metallicRoughness.png"
    },
    {
      "uri": "textures/Bottom_normal.png"
    },
    {
      "uri": "textures/Windows_baseColor.png"
    },
    {
      "uri": "textures/Windows_metallicRoughness.png"
    },
    {
      "uri": "textures/Windows_normal.png"
    },
    {
      "uri": "textures/Details_baseColor.png"
    },
    {
      "uri": "textures/Details_metallicRoughness.png"
    },
    {
      "uri": "textures/Details_normal.png"
    },
    {
      "uri": "textures/Details_Transparent_baseColor.png"
    },
    {
      "uri": "textures/CarBody_baseColor.png"
    },
    {
      "uri": "textures/CarBody_metallicRoughness.png"
    },
    {
      "uri": "textures/CarBody_normal.png"
    }
  ],
  "materials": [
    {
      "doubleSided": true,
      "name": "Interior",
      "normalTexture": {
        "index": 1
      },
      "pbrMetallicRoughness": {
        "baseColorTexture": {
          "index": 0
        },
        "metallicFactor": 0.0
      }
    },
    {
      "doubleSided": true,
      "name": "Bottom",
      "normalTexture": {
        "index": 4
      },
      "occlusionTexture": {
        "index": 3
      },
      "pbrMetallicRoughness": {
        "baseColorTexture": {
          "index": 2
        },
        "metallicRoughnessTexture": {
          "index": 3
        }
      }
    },
    {
      "alphaMode": "BLEND",
      "doubleSided": true,
      "name": "Windows",
      "normalTexture": {
        "index": 7
      },
      "occlusionTexture": {
        "index": 6
      },
      "pbrMetallicRoughness": {
        "baseColorFactor": [
          1.0,
          1.0,
          1.0,
          0.99
        ],
        "baseColorTexture": {
          "index": 5
        },
        "metallicFactor": 0.0,
        "metallicRoughnessTexture": {
          "index": 6
        }
      }
    },
    {
      "doubleSided": true,
      "name": "Details",
      "normalTexture": {
        "index": 10
      },
      "occlusionTexture": {
        "index": 9
      },
      "pbrMetallicRoughness": {
        "baseColorTexture": {
          "index": 8
        },
        "metallicRoughnessTexture": {
          "index": 9
        }
      }
    },
    {
      "alphaMode": "BLEND",
      "doubleSided": true,
      "name": "Details_Transparent",
      "normalTexture": {
        "index": 10
      },
      "occlusionTexture": {
        "index": 9
      },
      "pbrMetallicRoughness": {
        "baseColorFactor": [
          1.0,
          1.0,
          1.0,
          0.5
        ],
        "baseColorTexture": {
          "index": 11
        },
        "metallicRoughnessTexture": {
          "index": 9
        }
      }
    },
    {
      "doubleSided": true,
      "name": "CarBody",
      "normalTexture": {
        "index": 14
      },
      "occlusionTexture": {
        "index": 13
      },
      "pbrMetallicRoughness": {
        "baseColorTexture": {
          "index": 12
        },
        "metallicRoughnessTexture": {
          "index": 13
        }
      }
    }
  ],
  "meshes": [
    {
      "name": "Car_Interior_0",
      "primitives": [
        {
          "attributes": {
            "NORMAL": 1,
            "POSITION": 0,
            "TANGENT": 2,
            "TEXCOORD_0": 3
          },
          "indices": 4,
          "material": 0,
          "mode": 4
        }
      ]
    },
    {
      "name": "Car_Bottom_0",
      "primitives": [
        {
          "attributes": {
            "NORMAL": 6,
            "POSITION": 5,
            "TANGENT": 7,
            "TEXCOORD_0": 8
          },
          "indices": 9,
          "material": 1,
          "mode": 4
        }
      ]
    },
    {
      "name": "Car_Windows_0",
      "primitives": [
        {
          "attributes": {
            "NORMAL": 11,
            "POSITION": 10,
            "TANGENT": 12,
            "TEXCOORD_0": 13
          },
          "indices": 14,
          "material": 2,
          "mode": 4
        }
      ]
    },
    {
      "name": "Car_Details_0",
      "primitives": [
        {
          "attributes": {
            "NORMAL": 16,
            "POSITION": 15,
            "TANGENT": 17,
            "TEXCOORD_0": 18
          },
          "indices": 19,
          "material": 3,
          "mode": 4
        }
      ]
    },
    {
      "name": "Car_Details_Transparent_0",
      "primitives": [
        {
          "attributes": {
            "NORMAL": 21,
            "POSITION": 20,
            "TANGENT": 22,
            "TEXCOORD_0": 23
          },
          "indices": 24,
          "material": 4,
          "mode": 4
        }
      ]
    },
    {
      "name": "Car_CarBody_0",
      "primitives": [
        {
          "attributes": {
            "NORMAL": 26,
            "POSITION": 25,
            "TANGENT": 27,
            "TEXCOORD_0": 28
          },
          "indices": 29,
          "material": 5,
          "mode": 4
        }
      ]
    }
  ],
  "nodes": [
    {
      "children": [
        1
      ],
      "matrix": [
        1.0,
        0.0,
        0.0,
        0.0,
        0.0,
        2.220446049250313e-16,
        -1.0,
        0.0,
        0.0,
        1.0,
        2.220446049250313e-16,
        0.0,
        0.0,
        0.0,
        0.0,
        1.0
      ],
      "name": "Sketchfab_model"
    },
    {
      "children": [
        2
      ],
      "matrix": [
        1.0,
        0.0,
        0.0,
        0.0,
        0.0,
        0.0,
        1.0,
        0.0,
        0.0,
        -1.0,
        0.0,
        0.0,
        0.0,
        0.0,
        0.0,
        1.0
      ],
      "name": "0eb447ef736e4d09b719e87df8ef4480.fbx"
    },
    {
      "children": [
        3
      ],
      "name": "RootNode"
    },
    {
      "children": [
        4,
        5,
        6,
        7,
        8,
        9
      ],
      "matrix": [
        100.0,
        0.0,
        0.0,
        0.0,
        0.0,
        -1.629206793918314e-05,
        -99.99999999999868,
        0.0,
        0.0,
        99.99999999999868,
        -1.629206793918314e-05,
        0.0,
        0.0,
        0.0,
        0.0,
        1.0
      ],
      "name": "Car"
    },
    {
      "mesh": 0,
      "name": "Car_Interior_0"
    },
    {
      "mesh": 1,
      "name": "Car_Bottom_0"
    },
    {
      "mesh": 2,
      "name": "Car_Windows_0"
    },
    {
      "mesh": 3,
      "name": "Car_Details_0"
    },
    {
      "mesh": 4,
      "name": "Car_Details_Transparent_0"
    },
    {
      "mesh": 5,
      "name": "Car_CarBody_0"
    }
  ],
  "samplers": [
    {
      "magFilter": 9729,
      "minFilter": 9987,
      "wrapS": 10497,
      "wrapT": 10497
    }
  ],
  "scene": 0,
  "scenes": [
    {
      "name": "Sketchfab_Scene",
      "nodes": [
        0
      ]
    }
  ],
  "textures": [
    {
      "sampler": 0,
      "source": 0
    },
    {
      "sampler": 0,
      "source": 1
    },
    {
      "sampler": 0,
      "source": 2
    },
    {
      "sampler": 0,
      "source": 3
    },
    {
      "sampler": 0,
      "source": 4
    },
    {
      "sampler": 0,
      "source": 5
    },
    {
      "sampler": 0,
      "source": 6
    },
    {
      "sampler": 0,
      "source": 7
    },
    {
      "sampler": 0,
      "source": 8
    },
    {
      "sampler": 0,
      "source": 9
    },
    {
      "sampler": 0,
      "source": 10
    },
    {
      "sampler": 0,
      "source": 11
    },
    {
      "sampler": 0,
      "source": 12
    },
    {
      "sampler": 0,
      "source": 13
    },
    {
      "sampler": 0,
      "source": 14
    }
  ]
}
